<?xml version="1.0" encoding="UTF-8"?>
<svg xmlns:svg="http://www.w3.org/2000/svg" xmlns="http://www.w3.org/2000/svg" xmlns:xlink="http://www.w3.org/1999/xlink" version="1.0" style="background-color: white" width="688" height="373" viewBox="0 0 688 373">
  <rect width="100%" height="100%" fill="white"/>
  <text x="60" y="8" font-family="Courier New, monospace" font-size="11" dominant-baseline="middle" text-anchor="middle">0</text>
  <text x="100" y="8" font-family="Courier New, monospace" font-size="11" dominant-baseline="middle" text-anchor="middle">1</text>
  <text x="140" y="8" font-family="Courier New, monospace" font-size="11" dominant-baseline="middle" text-anchor="middle">2</text>
  <text x="180" y="8" font-family="Courier New, monospace" font-size="11" dominant-baseline="middle" text-anchor="middle">3</text>
  <text x="220" y="8" font-family="Courier New, monospace" font-size="11" dominant-baseline="middle" text-anchor="middle">4</text>
  <text x="260" y="8" font-family="Courier New, monospace" font-size="11" dominant-baseline="middle" text-anchor="middle">5</text>
  <text x="300" y="8" font-family="Courier New, monospace" font-size="11" dominant-baseline="middle" text-anchor="middle">6</text>
  <text x="340" y="8" font-family="Courier New, monospace" font-size="11" dominant-baseline="middle" text-anchor="middle">7</text>
  <text x="380" y="8" font-family="Courier New, monospace" font-size="11" dominant-baseline="middle" text-anchor="middle">8</text>
  <text x="420" y="8" font-family="Courier New, monospace" font-size="11" dominant-baseline="middle" text-anchor="middle">9</text>
  <text x="460" y="8" font-family="Courier New, monospace" font-size="11" dominant-baseline="middle" text-anchor="middle">a</text>
  <text x="500" y="8" font-family="Courier New, monospace" font-size="11" dominant-baseline="middle" text-anchor="middle">b</text>
  <text x="540" y="8" font-family="Courier New, monospace" font-size="11" dominant-baseline="middle" text-anchor="middle">c</text>
  <text x="580" y="8" font-family="Courier New, monospace" font-size="11" dominant-baseline="middle" text-anchor="middle">d</text>
  <text x="620" y="8" font-family="Courier New, monospace" font-size="11" dominant-baseline="middle" text-anchor="middle">e</text>
  <text x="660" y="8" font-family="Courier New, monospace" font-size="11" dominant-baseline="middle" text-anchor="middle">f</text>
  <rect x="40" y="15" height="30" width="640" fill="#a0ffa0"/>
  <line x1="40" y1="15" x2="680" y2="15" stroke="#000000" stroke-width="1"/>
  <line x1="40" y1="45" x2="680" y2="45" stroke="#000000" stroke-width="1"/>
  <line x1="680" y1="15" x2="680" y2="45" stroke="#000000" stroke-width="1"/>
  <line x1="40" y1="15" x2="40" y2="45" stroke="#000000" stroke-width="1"/>
  <text font-size="18" font-family="Palatino, Georgia, Times New Roman, serif" x="360" y="31" text-anchor="middle" dominant-baseline="middle">magic</text>
  <text font-size="11" font-family="Courier New, monospace" font-style="normal" dominant-baseline="middle" x="35" y="30" text-anchor="end">00</text>
  <text font-size="11" font-family="Courier New, monospace" font-style="normal" dominant-baseline="middle" x="35" y="60" text-anchor="end">10</text>
  <rect x="40" y="45" height="30" width="160" fill="#ffb0a0"/>
  <line x1="40" y1="45" x2="200" y2="45" stroke="#000000" stroke-width="1"/>
  <line x1="40" y1="75" x2="200" y2="75" stroke="#000000" stroke-width="1"/>
  <line x1="200" y1="45" x2="200" y2="75" stroke="#000000" stroke-width="1"/>
  <line x1="40" y1="45" x2="40" y2="75" stroke="#000000" stroke-width="1"/>
  <text font-size="18" font-family="Palatino, Georgia, Times New Roman, serif" x="120" y="61" text-anchor="middle" dominant-baseline="middle">bat LBA</text>
  <rect x="200" y="45" height="30" width="160" fill="#ffb0a0"/>
  <line x1="200" y1="45" x2="360" y2="45" stroke="#000000" stroke-width="1"/>
  <line x1="200" y1="75" x2="360" y2="75" stroke="#000000" stroke-width="1"/>
  <line x1="360" y1="45" x2="360" y2="75" stroke="#000000" stroke-width="1"/>
  <line x1="200" y1="45" x2="200" y2="75" stroke="#000000" stroke-width="1"/>
  <text font-size="18" font-family="Palatino, Georgia, Times New Roman, serif" x="280" y="61" text-anchor="middle" dominant-baseline="middle">min LBA</text>
  <rect x="360" y="45" height="30" width="160" fill="#ffb0a0"/>
  <line x1="360" y1="45" x2="520" y2="45" stroke="#000000" stroke-width="1"/>
  <line x1="360" y1="75" x2="520" y2="75" stroke="#000000" stroke-width="1"/>
  <line x1="520" y1="45" x2="520" y2="75" stroke="#000000" stroke-width="1"/>
  <line x1="360" y1="45" x2="360" y2="75" stroke="#000000" stroke-width="1"/>
  <text font-size="18" font-family="Palatino, Georgia, Times New Roman, serif" x="440" y="61" text-anchor="middle" dominant-baseline="middle">bat-start LBA</text>
  <rect x="520" y="45" height="30" width="160" fill="#ffb0a0"/>
  <line x1="520" y1="45" x2="680" y2="45" stroke="#000000" stroke-width="1"/>
  <line x1="520" y1="75" x2="680" y2="75" stroke="#000000" stroke-width="1"/>
  <line x1="680" y1="45" x2="680" y2="75" stroke="#000000" stroke-width="1"/>
  <line x1="520" y1="45" x2="520" y2="75" stroke="#000000" stroke-width="1"/>
  <text font-size="18" font-family="Palatino, Georgia, Times New Roman, serif" x="600" y="61" text-anchor="middle" dominant-baseline="middle">max LBA</text>
  <text font-size="11" font-family="Courier New, monospace" font-style="normal" dominant-baseline="middle" x="35" y="90" text-anchor="end">20</text>
  <rect x="40" y="75" height="30" width="160" fill="#e4b5f7"/>
  <line x1="40" y1="75" x2="200" y2="75" stroke="#000000" stroke-width="1"/>
  <line x1="40" y1="105" x2="200" y2="105" stroke="#000000" stroke-width="1"/>
  <line stroke-dasharray="1,3" x1="200" y1="75" x2="200" y2="105" stroke="#000000" stroke-width="1"/>
  <line x1="40" y1="75" x2="40" y2="105" stroke="#000000" stroke-width="1"/>
  <text font-size="18" font-family="Palatino, Georgia, Times New Roman, serif" x="120" y="91" text-anchor="middle" dominant-baseline="middle">blockSize</text>
  <rect x="200" y="75" height="30" width="40" fill="#e4b5f7"/>
  <line x1="200" y1="75" x2="240" y2="75" stroke="#000000" stroke-width="1"/>
  <line x1="200" y1="105" x2="240" y2="105" stroke="#000000" stroke-width="1"/>
  <line x1="240" y1="75" x2="240" y2="105" stroke="#000000" stroke-width="1"/>
  <line stroke-dasharray="1,3" x1="200" y1="75" x2="200" y2="105" stroke="#000000" stroke-width="1"/>
  <text font-size="18" font-family="Palatino, Georgia, Times New Roman, serif" x="220" y="91" text-anchor="middle" dominant-baseline="middle">BS</text>
  <line x1="240" y1="75" x2="280" y2="75" stroke="#000000" stroke-width="1"/>
  <line x1="240" y1="105" x2="280" y2="105" stroke="#000000" stroke-width="1"/>
  <line x1="280" y1="75" x2="280" y2="105" stroke="#000000" stroke-width="1"/>
  <line x1="240" y1="75" x2="240" y2="105" stroke="#000000" stroke-width="1"/>
  <text font-size="18" font-family="Courier New, monospace" x="260" y="91" text-anchor="middle" dominant-baseline="middle">00</text>
  <line x1="280" y1="75" x2="360" y2="75" stroke="#000000" stroke-width="1"/>
  <line x1="280" y1="105" x2="360" y2="105" stroke="#000000" stroke-width="1"/>
  <line x1="360" y1="75" x2="360" y2="105" stroke="#000000" stroke-width="1"/>
  <line x1="280" y1="75" x2="280" y2="105" stroke="#000000" stroke-width="1"/>
  <text font-size="18" font-family="Palatino, Georgia, Times New Roman, serif" x="320" y="91" text-anchor="middle" dominant-baseline="middle">flags</text>
  <rect x="360" y="75" height="30" width="160" fill="#ffffa0"/>
  <line x1="360" y1="75" x2="520" y2="75" stroke="#000000" stroke-width="1"/>
  <line x1="360" y1="105" x2="520" y2="105" stroke="#000000" stroke-width="1"/>
  <line stroke-dasharray="1,3" x1="520" y1="75" x2="520" y2="105" stroke="#000000" stroke-width="1"/>
  <line x1="360" y1="75" x2="360" y2="105" stroke="#000000" stroke-width="1"/>
  <text font-size="18" font-family="Palatino, Georgia, Times New Roman, serif" x="440" y="91" text-anchor="middle" dominant-baseline="middle">root LBA</text>
  <rect x="520" y="75" height="30" width="160" fill="#ffffa0"/>
  <line x1="520" y1="75" x2="680" y2="75" stroke="#000000" stroke-width="1"/>
  <line x1="520" y1="105" x2="680" y2="105" stroke="#000000" stroke-width="1"/>
  <line x1="680" y1="75" x2="680" y2="105" stroke="#000000" stroke-width="1"/>
  <line stroke-dasharray="1,3" x1="520" y1="75" x2="520" y2="105" stroke="#000000" stroke-width="1"/>
  <text font-size="18" font-family="Palatino, Georgia, Times New Roman, serif" x="600" y="91" text-anchor="middle" dominant-baseline="middle">root-size</text>
  <text font-size="11" font-family="Courier New, monospace" font-style="normal" dominant-baseline="middle" x="35" y="120" text-anchor="end">30</text>
  <line x1="40" y1="105" x2="80" y2="105" stroke="#000000" stroke-width="1"/>
  <line stroke-dasharray="1,3" x1="40" y1="135" x2="80" y2="135" stroke="#000000" stroke-width="1"/>
  <line stroke-dasharray="1,3" x1="80" y1="105" x2="80" y2="135" stroke="#000000" stroke-width="1"/>
  <line x1="40" y1="105" x2="40" y2="135" stroke="#000000" stroke-width="1"/>
  <text font-size="18" font-family="Courier New, monospace" x="60" y="121" text-anchor="middle" dominant-baseline="middle">00</text>
  <line x1="80" y1="105" x2="120" y2="105" stroke="#000000" stroke-width="1"/>
  <line stroke-dasharray="1,3" x1="80" y1="135" x2="120" y2="135" stroke="#000000" stroke-width="1"/>
  <line stroke-dasharray="1,3" x1="120" y1="105" x2="120" y2="135" stroke="#000000" stroke-width="1"/>
  <line stroke-dasharray="1,3" x1="80" y1="105" x2="80" y2="135" stroke="#000000" stroke-width="1"/>
  <text font-size="18" font-family="Courier New, monospace" x="100" y="121" text-anchor="middle" dominant-baseline="middle">00</text>
  <line x1="120" y1="105" x2="160" y2="105" stroke="#000000" stroke-width="1"/>
  <line stroke-dasharray="1,3" x1="120" y1="135" x2="160" y2="135" stroke="#000000" stroke-width="1"/>
  <line stroke-dasharray="1,3" x1="160" y1="105" x2="160" y2="135" stroke="#000000" stroke-width="1"/>
  <line stroke-dasharray="1,3" x1="120" y1="105" x2="120" y2="135" stroke="#000000" stroke-width="1"/>
  <text font-size="18" font-family="Courier New, monospace" x="140" y="121" text-anchor="middle" dominant-baseline="middle">00</text>
  <line x1="160" y1="105" x2="200" y2="105" stroke="#000000" stroke-width="1"/>
  <line stroke-dasharray="1,3" x1="160" y1="135" x2="200" y2="135" stroke="#000000" stroke-width="1"/>
  <line stroke-dasharray="1,3" x1="200" y1="105" x2="200" y2="135" stroke="#000000" stroke-width="1"/>
  <line stroke-dasharray="1,3" x1="160" y1="105" x2="160" y2="135" stroke="#000000" stroke-width="1"/>
  <text font-size="18" font-family="Courier New, monospace" x="180" y="121" text-anchor="middle" dominant-baseline="middle">00</text>
  <line x1="200" y1="105" x2="240" y2="105" stroke="#000000" stroke-width="1"/>
  <line stroke-dasharray="1,3" x1="200" y1="135" x2="240" y2="135" stroke="#000000" stroke-width="1"/>
  <line stroke-dasharray="1,3" x1="240" y1="105" x2="240" y2="135" stroke="#000000" stroke-width="1"/>
  <line stroke-dasharray="1,3" x1="200" y1="105" x2="200" y2="135" stroke="#000000" stroke-width="1"/>
  <text font-size="18" font-family="Courier New, monospace" x="220" y="121" text-anchor="middle" dominant-baseline="middle">00</text>
  <line x1="240" y1="105" x2="280" y2="105" stroke="#000000" stroke-width="1"/>
  <line stroke-dasharray="1,3" x1="240" y1="135" x2="280" y2="135" stroke="#000000" stroke-width="1"/>
  <line stroke-dasharray="1,3" x1="280" y1="105" x2="280" y2="135" stroke="#000000" stroke-width="1"/>
  <line stroke-dasharray="1,3" x1="240" y1="105" x2="240" y2="135" stroke="#000000" stroke-width="1"/>
  <text font-size="18" font-family="Courier New, monospace" x="260" y="121" text-anchor="middle" dominant-baseline="middle">00</text>
  <line x1="280" y1="105" x2="320" y2="105" stroke="#000000" stroke-width="1"/>
  <line stroke-dasharray="1,3" x1="280" y1="135" x2="320" y2="135" stroke="#000000" stroke-width="1"/>
  <line stroke-dasharray="1,3" x1="320" y1="105" x2="320" y2="135" stroke="#000000" stroke-width="1"/>
  <line stroke-dasharray="1,3" x1="280" y1="105" x2="280" y2="135" stroke="#000000" stroke-width="1"/>
  <text font-size="18" font-family="Courier New, monospace" x="300" y="121" text-anchor="middle" dominant-baseline="middle">00</text>
  <line x1="320" y1="105" x2="360" y2="105" stroke="#000000" stroke-width="1"/>
  <line stroke-dasharray="1,3" x1="320" y1="135" x2="360" y2="135" stroke="#000000" stroke-width="1"/>
  <line stroke-dasharray="1,3" x1="360" y1="105" x2="360" y2="135" stroke="#000000" stroke-width="1"/>
  <line stroke-dasharray="1,3" x1="320" y1="105" x2="320" y2="135" stroke="#000000" stroke-width="1"/>
  <text font-size="18" font-family="Courier New, monospace" x="340" y="121" text-anchor="middle" dominant-baseline="middle">00</text>
  <line x1="360" y1="105" x2="400" y2="105" stroke="#000000" stroke-width="1"/>
  <line stroke-dasharray="1,3" x1="360" y1="135" x2="400" y2="135" stroke="#000000" stroke-width="1"/>
  <line stroke-dasharray="1,3" x1="400" y1="105" x2="400" y2="135" stroke="#000000" stroke-width="1"/>
  <line stroke-dasharray="1,3" x1="360" y1="105" x2="360" y2="135" stroke="#000000" stroke-width="1"/>
  <text font-size="18" font-family="Courier New, monospace" x="380" y="121" text-anchor="middle" dominant-baseline="middle">00</text>
  <line x1="400" y1="105" x2="440" y2="105" stroke="#000000" stroke-width="1"/>
  <line stroke-dasharray="1,3" x1="400" y1="135" x2="440" y2="135" stroke="#000000" stroke-width="1"/>
  <line stroke-dasharray="1,3" x1="440" y1="105" x2="440" y2="135" stroke="#000000" stroke-width="1"/>
  <line stroke-dasharray="1,3" x1="400" y1="105" x2="400" y2="135" stroke="#000000" stroke-width="1"/>
  <text font-size="18" font-family="Courier New, monospace" x="420" y="121" text-anchor="middle" dominant-baseline="middle">00</text>
  <line x1="440" y1="105" x2="480" y2="105" stroke="#000000" stroke-width="1"/>
  <line stroke-dasharray="1,3" x1="440" y1="135" x2="480" y2="135" stroke="#000000" stroke-width="1"/>
  <line stroke-dasharray="1,3" x1="480" y1="105" x2="480" y2="135" stroke="#000000" stroke-width="1"/>
  <line stroke-dasharray="1,3" x1="440" y1="105" x2="440" y2="135" stroke="#000000" stroke-width="1"/>
  <text font-size="18" font-family="Courier New, monospace" x="460" y="121" text-anchor="middle" dominant-baseline="middle">00</text>
  <line x1="480" y1="105" x2="520" y2="105" stroke="#000000" stroke-width="1"/>
  <line stroke-dasharray="1,3" x1="480" y1="135" x2="520" y2="135" stroke="#000000" stroke-width="1"/>
  <line stroke-dasharray="1,3" x1="520" y1="105" x2="520" y2="135" stroke="#000000" stroke-width="1"/>
  <line stroke-dasharray="1,3" x1="480" y1="105" x2="480" y2="135" stroke="#000000" stroke-width="1"/>
  <text font-size="18" font-family="Courier New, monospace" x="500" y="121" text-anchor="middle" dominant-baseline="middle">00</text>
  <line x1="520" y1="105" x2="560" y2="105" stroke="#000000" stroke-width="1"/>
  <line stroke-dasharray="1,3" x1="520" y1="135" x2="560" y2="135" stroke="#000000" stroke-width="1"/>
  <line stroke-dasharray="1,3" x1="560" y1="105" x2="560" y2="135" stroke="#000000" stroke-width="1"/>
  <line stroke-dasharray="1,3" x1="520" y1="105" x2="520" y2="135" stroke="#000000" stroke-width="1"/>
  <text font-size="18" font-family="Courier New, monospace" x="540" y="121" text-anchor="middle" dominant-baseline="middle">00</text>
  <line x1="560" y1="105" x2="600" y2="105" stroke="#000000" stroke-width="1"/>
  <line stroke-dasharray="1,3" x1="560" y1="135" x2="600" y2="135" stroke="#000000" stroke-width="1"/>
  <line stroke-dasharray="1,3" x1="600" y1="105" x2="600" y2="135" stroke="#000000" stroke-width="1"/>
  <line stroke-dasharray="1,3" x1="560" y1="105" x2="560" y2="135" stroke="#000000" stroke-width="1"/>
  <text font-size="18" font-family="Courier New, monospace" x="580" y="121" text-anchor="middle" dominant-baseline="middle">00</text>
  <line x1="600" y1="105" x2="640" y2="105" stroke="#000000" stroke-width="1"/>
  <line stroke-dasharray="1,3" x1="600" y1="135" x2="640" y2="135" stroke="#000000" stroke-width="1"/>
  <line stroke-dasharray="1,3" x1="640" y1="105" x2="640" y2="135" stroke="#000000" stroke-width="1"/>
  <line stroke-dasharray="1,3" x1="600" y1="105" x2="600" y2="135" stroke="#000000" stroke-width="1"/>
  <text font-size="18" font-family="Courier New, monospace" x="620" y="121" text-anchor="middle" dominant-baseline="middle">00</text>
  <line x1="640" y1="105" x2="680" y2="105" stroke="#000000" stroke-width="1"/>
  <line stroke-dasharray="1,3" x1="640" y1="135" x2="680" y2="135" stroke="#000000" stroke-width="1"/>
  <line x1="680" y1="105" x2="680" y2="135" stroke="#000000" stroke-width="1"/>
  <line stroke-dasharray="1,3" x1="640" y1="105" x2="640" y2="135" stroke="#000000" stroke-width="1"/>
  <text font-size="18" font-family="Courier New, monospace" x="660" y="121" text-anchor="middle" dominant-baseline="middle">00</text>
  <text font-size="11" font-family="Courier New, monospace" font-style="normal" dominant-baseline="middle" x="35" y="150" text-anchor="end">40</text>
  <line stroke-dasharray="1,3" x1="40" y1="135" x2="80" y2="135" stroke="#000000" stroke-width="1"/>
  <line x1="40" y1="165" x2="80" y2="165" stroke="#000000" stroke-width="1"/>
  <line stroke-dasharray="1,3" x1="80" y1="135" x2="80" y2="165" stroke="#000000" stroke-width="1"/>
  <line x1="40" y1="135" x2="40" y2="165" stroke="#000000" stroke-width="1"/>
  <text font-size="18" font-family="Courier New, monospace" x="60" y="151" text-anchor="middle" dominant-baseline="middle">00</text>
  <line stroke-dasharray="1,3" x1="80" y1="135" x2="120" y2="135" stroke="#000000" stroke-width="1"/>
  <line x1="80" y1="165" x2="120" y2="165" stroke="#000000" stroke-width="1"/>
  <line stroke-dasharray="1,3" x1="120" y1="135" x2="120" y2="165" stroke="#000000" stroke-width="1"/>
  <line stroke-dasharray="1,3" x1="80" y1="135" x2="80" y2="165" stroke="#000000" stroke-width="1"/>
  <text font-size="18" font-family="Courier New, monospace" x="100" y="151" text-anchor="middle" dominant-baseline="middle">00</text>
  <line stroke-dasharray="1,3" x1="120" y1="135" x2="160" y2="135" stroke="#000000" stroke-width="1"/>
  <line x1="120" y1="165" x2="160" y2="165" stroke="#000000" stroke-width="1"/>
  <line stroke-dasharray="1,3" x1="160" y1="135" x2="160" y2="165" stroke="#000000" stroke-width="1"/>
  <line stroke-dasharray="1,3" x1="120" y1="135" x2="120" y2="165" stroke="#000000" stroke-width="1"/>
  <text font-size="18" font-family="Courier New, monospace" x="140" y="151" text-anchor="middle" dominant-baseline="middle">00</text>
  <line stroke-dasharray="1,3" x1="160" y1="135" x2="200" y2="135" stroke="#000000" stroke-width="1"/>
  <line x1="160" y1="165" x2="200" y2="165" stroke="#000000" stroke-width="1"/>
  <line stroke-dasharray="1,3" x1="200" y1="135" x2="200" y2="165" stroke="#000000" stroke-width="1"/>
  <line stroke-dasharray="1,3" x1="160" y1="135" x2="160" y2="165" stroke="#000000" stroke-width="1"/>
  <text font-size="18" font-family="Courier New, monospace" x="180" y="151" text-anchor="middle" dominant-baseline="middle">00</text>
  <line stroke-dasharray="1,3" x1="200" y1="135" x2="240" y2="135" stroke="#000000" stroke-width="1"/>
  <line x1="200" y1="165" x2="240" y2="165" stroke="#000000" stroke-width="1"/>
  <line stroke-dasharray="1,3" x1="240" y1="135" x2="240" y2="165" stroke="#000000" stroke-width="1"/>
  <line stroke-dasharray="1,3" x1="200" y1="135" x2="200" y2="165" stroke="#000000" stroke-width="1"/>
  <text font-size="18" font-family="Courier New, monospace" x="220" y="151" text-anchor="middle" dominant-baseline="middle">00</text>
  <line stroke-dasharray="1,3" x1="240" y1="135" x2="280" y2="135" stroke="#000000" stroke-width="1"/>
  <line x1="240" y1="165" x2="280" y2="165" stroke="#000000" stroke-width="1"/>
  <line stroke-dasharray="1,3" x1="280" y1="135" x2="280" y2="165" stroke="#000000" stroke-width="1"/>
  <line stroke-dasharray="1,3" x1="240" y1="135" x2="240" y2="165" stroke="#000000" stroke-width="1"/>
  <text font-size="18" font-family="Courier New, monospace" x="260" y="151" text-anchor="middle" dominant-baseline="middle">00</text>
  <line stroke-dasharray="1,3" x1="280" y1="135" x2="320" y2="135" stroke="#000000" stroke-width="1"/>
  <line x1="280" y1="165" x2="320" y2="165" stroke="#000000" stroke-width="1"/>
  <line stroke-dasharray="1,3" x1="320" y1="135" x2="320" y2="165" stroke="#000000" stroke-width="1"/>
  <line stroke-dasharray="1,3" x1="280" y1="135" x2="280" y2="165" stroke="#000000" stroke-width="1"/>
  <text font-size="18" font-family="Courier New, monospace" x="300" y="151" text-anchor="middle" dominant-baseline="middle">00</text>
  <line stroke-dasharray="1,3" x1="320" y1="135" x2="360" y2="135" stroke="#000000" stroke-width="1"/>
  <line x1="320" y1="165" x2="360" y2="165" stroke="#000000" stroke-width="1"/>
  <line stroke-dasharray="1,3" x1="360" y1="135" x2="360" y2="165" stroke="#000000" stroke-width="1"/>
  <line stroke-dasharray="1,3" x1="320" y1="135" x2="320" y2="165" stroke="#000000" stroke-width="1"/>
  <text font-size="18" font-family="Courier New, monospace" x="340" y="151" text-anchor="middle" dominant-baseline="middle">00</text>
  <line stroke-dasharray="1,3" x1="360" y1="135" x2="400" y2="135" stroke="#000000" stroke-width="1"/>
  <line x1="360" y1="165" x2="400" y2="165" stroke="#000000" stroke-width="1"/>
  <line stroke-dasharray="1,3" x1="400" y1="135" x2="400" y2="165" stroke="#000000" stroke-width="1"/>
  <line stroke-dasharray="1,3" x1="360" y1="135" x2="360" y2="165" stroke="#000000" stroke-width="1"/>
  <text font-size="18" font-family="Courier New, monospace" x="380" y="151" text-anchor="middle" dominant-baseline="middle">00</text>
  <line stroke-dasharray="1,3" x1="400" y1="135" x2="440" y2="135" stroke="#000000" stroke-width="1"/>
  <line x1="400" y1="165" x2="440" y2="165" stroke="#000000" stroke-width="1"/>
  <line stroke-dasharray="1,3" x1="440" y1="135" x2="440" y2="165" stroke="#000000" stroke-width="1"/>
  <line stroke-dasharray="1,3" x1="400" y1="135" x2="400" y2="165" stroke="#000000" stroke-width="1"/>
  <text font-size="18" font-family="Courier New, monospace" x="420" y="151" text-anchor="middle" dominant-baseline="middle">00</text>
  <line stroke-dasharray="1,3" x1="440" y1="135" x2="480" y2="135" stroke="#000000" stroke-width="1"/>
  <line x1="440" y1="165" x2="480" y2="165" stroke="#000000" stroke-width="1"/>
  <line stroke-dasharray="1,3" x1="480" y1="135" x2="480" y2="165" stroke="#000000" stroke-width="1"/>
  <line stroke-dasharray="1,3" x1="440" y1="135" x2="440" y2="165" stroke="#000000" stroke-width="1"/>
  <text font-size="18" font-family="Courier New, monospace" x="460" y="151" text-anchor="middle" dominant-baseline="middle">00</text>
  <line stroke-dasharray="1,3" x1="480" y1="135" x2="520" y2="135" stroke="#000000" stroke-width="1"/>
  <line x1="480" y1="165" x2="520" y2="165" stroke="#000000" stroke-width="1"/>
  <line stroke-dasharray="1,3" x1="520" y1="135" x2="520" y2="165" stroke="#000000" stroke-width="1"/>
  <line stroke-dasharray="1,3" x1="480" y1="135" x2="480" y2="165" stroke="#000000" stroke-width="1"/>
  <text font-size="18" font-family="Courier New, monospace" x="500" y="151" text-anchor="middle" dominant-baseline="middle">00</text>
  <line stroke-dasharray="1,3" x1="520" y1="135" x2="560" y2="135" stroke="#000000" stroke-width="1"/>
  <line x1="520" y1="165" x2="560" y2="165" stroke="#000000" stroke-width="1"/>
  <line stroke-dasharray="1,3" x1="560" y1="135" x2="560" y2="165" stroke="#000000" stroke-width="1"/>
  <line stroke-dasharray="1,3" x1="520" y1="135" x2="520" y2="165" stroke="#000000" stroke-width="1"/>
  <text font-size="18" font-family="Courier New, monospace" x="540" y="151" text-anchor="middle" dominant-baseline="middle">00</text>
  <line stroke-dasharray="1,3" x1="560" y1="135" x2="600" y2="135" stroke="#000000" stroke-width="1"/>
  <line x1="560" y1="165" x2="600" y2="165" stroke="#000000" stroke-width="1"/>
  <line stroke-dasharray="1,3" x1="600" y1="135" x2="600" y2="165" stroke="#000000" stroke-width="1"/>
  <line stroke-dasharray="1,3" x1="560" y1="135" x2="560" y2="165" stroke="#000000" stroke-width="1"/>
  <text font-size="18" font-family="Courier New, monospace" x="580" y="151" text-anchor="middle" dominant-baseline="middle">00</text>
  <line stroke-dasharray="1,3" x1="600" y1="135" x2="640" y2="135" stroke="#000000" stroke-width="1"/>
  <line x1="600" y1="165" x2="640" y2="165" stroke="#000000" stroke-width="1"/>
  <line stroke-dasharray="1,3" x1="640" y1="135" x2="640" y2="165" stroke="#000000" stroke-width="1"/>
  <line stroke-dasharray="1,3" x1="600" y1="135" x2="600" y2="165" stroke="#000000" stroke-width="1"/>
  <text font-size="18" font-family="Courier New, monospace" x="620" y="151" text-anchor="middle" dominant-baseline="middle">00</text>
  <line stroke-dasharray="1,3" x1="640" y1="135" x2="680" y2="135" stroke="#000000" stroke-width="1"/>
  <line x1="640" y1="165" x2="680" y2="165" stroke="#000000" stroke-width="1"/>
  <line x1="680" y1="135" x2="680" y2="165" stroke="#000000" stroke-width="1"/>
  <line stroke-dasharray="1,3" x1="640" y1="135" x2="640" y2="165" stroke="#000000" stroke-width="1"/>
  <text font-size="18" font-family="Courier New, monospace" x="660" y="151" text-anchor="middle" dominant-baseline="middle">00</text>
  <text font-size="11" font-family="Courier New, monospace" font-style="normal" dominant-baseline="middle" x="35" y="180" text-anchor="end">50</text>
  <line x1="40" y1="165" x2="40" y2="165" stroke="#000000" stroke-width="1"/>
  <line x1="40" y1="165" x2="40" y2="195" stroke="#000000" stroke-width="1"/>
  <line x1="40" y1="165" x2="40" y2="195" stroke="#000000" stroke-width="1"/>
  <line x1="680" y1="165" x2="680" y2="195" stroke="#000000" stroke-width="1"/>
  <line x1="40" y1="165" x2="40" y2="195" stroke="#000000" stroke-width="1"/>
  <text font-size="18" font-family="Palatino, Georgia, Times New Roman, serif" x="360" y="181" text-anchor="middle" dominant-baseline="middle">volume label</text>
  <text font-size="11" font-family="Courier New, monospace" font-style="normal" dominant-baseline="middle" x="35" y="210" text-anchor="end">60</text>
  <line x1="40" y1="195" x2="40" y2="210" stroke="#000000" stroke-width="1"/>
  <line x1="680" y1="195" x2="680" y2="210" stroke="#000000" stroke-width="1"/>
  <line stroke-dasharray="1,1" x1="40" y1="210" x2="680" y2="240" stroke="#000000" stroke-width="1"/>
  <line x1="680" y1="195" x2="680" y2="240" stroke="#000000" stroke-width="1"/>
  <line stroke-dasharray="1,1" x1="40" y1="220" x2="680" y2="250" stroke="#000000" stroke-width="1"/>
  <line x1="40" y1="220" x2="40" y2="250" stroke="#000000" stroke-width="1"/>
  <line x1="40" y1="250" x2="40" y2="265" stroke="#000000" stroke-width="1"/>
  <line x1="680" y1="250" x2="680" y2="265" stroke="#000000" stroke-width="1"/>
  <text font-size="18" font-family="Palatino, Georgia, Times New Roman, serif" x="35" y="280" text-anchor="end"/>
  <line x1="40" y1="265" x2="680" y2="265" stroke="#000000" stroke-width="1"/>
  <line x1="680" y1="265" x2="680" y2="295" stroke="#000000" stroke-width="1"/>
  <line x1="40" y1="265" x2="40" y2="295" stroke="#000000" stroke-width="1"/>
  <text font-size="18" font-family="Palatino, Georgia, Times New Roman, serif" x="360" y="281" text-anchor="middle" dominant-baseline="middle">private data</text>
  <text font-size="11" font-family="Courier New, monospace" font-style="normal" dominant-baseline="middle" x="35" y="280" text-anchor="end">100</text>
  <text font-size="11" font-family="Courier New, monospace" font-style="normal" dominant-baseline="middle" x="35" y="310" text-anchor="end">110</text>
  <line x1="40" y1="295" x2="40" y2="310" stroke="#000000" stroke-width="1"/>
  <line x1="680" y1="295" x2="680" y2="310" stroke="#000000" stroke-width="1"/>
  <line stroke-dasharray="1,1" x1="40" y1="310" x2="680" y2="340" stroke="#000000" stroke-width="1"/>
  <line x1="680" y1="295" x2="680" y2="340" stroke="#000000" stroke-width="1"/>
  <line stroke-dasharray="1,1" x1="40" y1="320" x2="680" y2="350" stroke="#000000" stroke-width="1"/>
  <line x1="40" y1="320" x2="40" y2="350" stroke="#000000" stroke-width="1"/>
  <line x1="40" y1="350" x2="40" y2="365" stroke="#000000" stroke-width="1"/>
  <line x1="680" y1="350" x2="680" y2="365" stroke="#000000" stroke-width="1"/>
  <text font-size="11" font-family="Courier New, monospace" font-style="normal" dominant-baseline="middle" x="35" y="380" text-anchor="end">100</text>
  <line x1="40" y1="365" x2="680" y2="365" stroke="#000000" stroke-width="1"/>
</svg>
