<?xml version="1.0" encoding="UTF-8"?>
<svg xmlns:svg="http://www.w3.org/2000/svg" xmlns="http://www.w3.org/2000/svg" xmlns:xlink="http://www.w3.org/1999/xlink" version="1.0" style="background-color: white" width="688" height="243" viewBox="0 0 688 243">
  <rect width="100%" height="100%" fill="white"/>
  <text x="60" y="8" font-family="Courier New, monospace" font-size="11" dominant-baseline="middle" text-anchor="middle">0</text>
  <text x="100" y="8" font-family="Courier New, monospace" font-size="11" dominant-baseline="middle" text-anchor="middle">1</text>
  <text x="140" y="8" font-family="Courier New, monospace" font-size="11" dominant-baseline="middle" text-anchor="middle">2</text>
  <text x="180" y="8" font-family="Courier New, monospace" font-size="11" dominant-baseline="middle" text-anchor="middle">3</text>
  <text x="220" y="8" font-family="Courier New, monospace" font-size="11" dominant-baseline="middle" text-anchor="middle">4</text>
  <text x="260" y="8" font-family="Courier New, monospace" font-size="11" dominant-baseline="middle" text-anchor="middle">5</text>
  <text x="300" y="8" font-family="Courier New, monospace" font-size="11" dominant-baseline="middle" text-anchor="middle">6</text>
  <text x="340" y="8" font-family="Courier New, monospace" font-size="11" dominant-baseline="middle" text-anchor="middle">7</text>
  <text x="380" y="8" font-family="Courier New, monospace" font-size="11" dominant-baseline="middle" text-anchor="middle">8</text>
  <text x="420" y="8" font-family="Courier New, monospace" font-size="11" dominant-baseline="middle" text-anchor="middle">9</text>
  <text x="460" y="8" font-family="Courier New, monospace" font-size="11" dominant-baseline="middle" text-anchor="middle">a</text>
  <text x="500" y="8" font-family="Courier New, monospace" font-size="11" dominant-baseline="middle" text-anchor="middle">b</text>
  <text x="540" y="8" font-family="Courier New, monospace" font-size="11" dominant-baseline="middle" text-anchor="middle">c</text>
  <text x="580" y="8" font-family="Courier New, monospace" font-size="11" dominant-baseline="middle" text-anchor="middle">d</text>
  <text x="620" y="8" font-family="Courier New, monospace" font-size="11" dominant-baseline="middle" text-anchor="middle">e</text>
  <text x="660" y="8" font-family="Courier New, monospace" font-size="11" dominant-baseline="middle" text-anchor="middle">f</text>
  <line x1="40" y1="15" x2="680" y2="15" stroke="#000000" stroke-width="1"/>
  <line x1="680" y1="15" x2="680" y2="45" stroke="#000000" stroke-width="1"/>
  <line x1="40" y1="15" x2="40" y2="45" stroke="#000000" stroke-width="1"/>
  <text font-size="18" font-family="Palatino, Georgia, Times New Roman, serif" x="360" y="31" text-anchor="middle" dominant-baseline="middle">bootCode</text>
  <text font-size="11" font-family="Courier New, monospace" font-style="normal" dominant-baseline="middle" x="35" y="30" text-anchor="end">00</text>
  <text font-size="11" font-family="Courier New, monospace" font-style="normal" dominant-baseline="middle" x="35" y="60" text-anchor="end">10</text>
  <line x1="40" y1="45" x2="40" y2="60" stroke="#000000" stroke-width="1"/>
  <line x1="680" y1="45" x2="680" y2="60" stroke="#000000" stroke-width="1"/>
  <line stroke-dasharray="1,1" x1="40" y1="60" x2="680" y2="90" stroke="#000000" stroke-width="1"/>
  <line x1="680" y1="45" x2="680" y2="90" stroke="#000000" stroke-width="1"/>
  <line stroke-dasharray="1,1" x1="40" y1="70" x2="680" y2="100" stroke="#000000" stroke-width="1"/>
  <line x1="40" y1="70" x2="40" y2="100" stroke="#000000" stroke-width="1"/>
  <line x1="40" y1="100" x2="40" y2="115" stroke="#000000" stroke-width="1"/>
  <line x1="680" y1="100" x2="680" y2="115" stroke="#000000" stroke-width="1"/>
  <text font-size="18" font-family="Palatino, Georgia, Times New Roman, serif" x="35" y="130" text-anchor="end"/>
  <rect x="40" y="115" height="30" width="640" fill="#a0ffa0"/>
  <line x1="40" y1="115" x2="680" y2="115" stroke="#000000" stroke-width="1"/>
  <line x1="40" y1="145" x2="680" y2="145" stroke="#000000" stroke-width="1"/>
  <line x1="680" y1="115" x2="680" y2="145" stroke="#000000" stroke-width="1"/>
  <line x1="40" y1="115" x2="40" y2="145" stroke="#000000" stroke-width="1"/>
  <text font-size="18" font-family="Palatino, Georgia, Times New Roman, serif" x="360" y="131" text-anchor="middle" dominant-baseline="middle">magic</text>
  <text font-size="11" font-family="Courier New, monospace" font-style="normal" dominant-baseline="middle" x="35" y="130" text-anchor="end">1c0</text>
  <text font-size="11" font-family="Courier New, monospace" font-style="normal" dominant-baseline="middle" x="35" y="160" text-anchor="end">1d0</text>
  <rect x="40" y="145" height="30" width="640" fill="#a0fafa"/>
  <line x1="40" y1="145" x2="680" y2="145" stroke="#000000" stroke-width="1"/>
  <line x1="680" y1="145" x2="680" y2="175" stroke="#000000" stroke-width="1"/>
  <line x1="40" y1="145" x2="40" y2="175" stroke="#000000" stroke-width="1"/>
  <text font-size="18" font-family="Palatino, Georgia, Times New Roman, serif" x="360" y="161" text-anchor="middle" dominant-baseline="middle">private</text>
  <text font-size="11" font-family="Courier New, monospace" font-style="normal" dominant-baseline="middle" x="35" y="190" text-anchor="end">1e0</text>
  <rect x="40" y="175" height="30" width="640" fill="#a0fafa"/>
  <line x1="40" y1="205" x2="680" y2="205" stroke="#000000" stroke-width="1"/>
  <line x1="680" y1="175" x2="680" y2="205" stroke="#000000" stroke-width="1"/>
  <line x1="40" y1="175" x2="40" y2="205" stroke="#000000" stroke-width="1"/>
  <text font-size="11" font-family="Courier New, monospace" font-style="normal" dominant-baseline="middle" x="35" y="220" text-anchor="end">1f0</text>
  <rect x="40" y="205" height="30" width="80" fill="#cccccc"/>
  <line x1="40" y1="205" x2="120" y2="205" stroke="#000000" stroke-width="1"/>
  <line x1="40" y1="235" x2="120" y2="235" stroke="#000000" stroke-width="1"/>
  <line x1="120" y1="205" x2="120" y2="235" stroke="#000000" stroke-width="1"/>
  <line x1="40" y1="205" x2="40" y2="235" stroke="#000000" stroke-width="1"/>
  <text font-size="18" font-family="Palatino, Georgia, Times New Roman, serif" x="80" y="221" text-anchor="middle" dominant-baseline="middle">flags</text>
  <line x1="120" y1="205" x2="160" y2="205" stroke="#000000" stroke-width="1"/>
  <line x1="120" y1="235" x2="160" y2="235" stroke="#000000" stroke-width="1"/>
  <line stroke-dasharray="1,3" x1="160" y1="205" x2="160" y2="235" stroke="#000000" stroke-width="1"/>
  <line x1="120" y1="205" x2="120" y2="235" stroke="#000000" stroke-width="1"/>
  <text font-size="18" font-family="Courier New, monospace" x="140" y="221" text-anchor="middle" dominant-baseline="middle">00</text>
  <line x1="160" y1="205" x2="200" y2="205" stroke="#000000" stroke-width="1"/>
  <line x1="160" y1="235" x2="200" y2="235" stroke="#000000" stroke-width="1"/>
  <line stroke-dasharray="1,3" x1="200" y1="205" x2="200" y2="235" stroke="#000000" stroke-width="1"/>
  <line stroke-dasharray="1,3" x1="160" y1="205" x2="160" y2="235" stroke="#000000" stroke-width="1"/>
  <text font-size="18" font-family="Courier New, monospace" x="180" y="221" text-anchor="middle" dominant-baseline="middle">00</text>
  <line x1="200" y1="205" x2="240" y2="205" stroke="#000000" stroke-width="1"/>
  <line x1="200" y1="235" x2="240" y2="235" stroke="#000000" stroke-width="1"/>
  <line stroke-dasharray="1,3" x1="240" y1="205" x2="240" y2="235" stroke="#000000" stroke-width="1"/>
  <line stroke-dasharray="1,3" x1="200" y1="205" x2="200" y2="235" stroke="#000000" stroke-width="1"/>
  <text font-size="18" font-family="Courier New, monospace" x="220" y="221" text-anchor="middle" dominant-baseline="middle">00</text>
  <line x1="240" y1="205" x2="280" y2="205" stroke="#000000" stroke-width="1"/>
  <line x1="240" y1="235" x2="280" y2="235" stroke="#000000" stroke-width="1"/>
  <line x1="280" y1="205" x2="280" y2="235" stroke="#000000" stroke-width="1"/>
  <line stroke-dasharray="1,3" x1="240" y1="205" x2="240" y2="235" stroke="#000000" stroke-width="1"/>
  <text font-size="18" font-family="Courier New, monospace" x="260" y="221" text-anchor="middle" dominant-baseline="middle">00</text>
  <rect x="280" y="205" height="30" width="320" fill="#ffffa0"/>
  <line x1="280" y1="205" x2="600" y2="205" stroke="#000000" stroke-width="1"/>
  <line x1="280" y1="235" x2="600" y2="235" stroke="#000000" stroke-width="1"/>
  <line stroke-dasharray="1,3" x1="600" y1="205" x2="600" y2="235" stroke="#000000" stroke-width="1"/>
  <line x1="280" y1="205" x2="280" y2="235" stroke="#000000" stroke-width="1"/>
  <text font-size="18" font-family="Palatino, Georgia, Times New Roman, serif" x="440" y="221" text-anchor="middle" dominant-baseline="middle">info LBA</text>
  <rect x="600" y="205" height="30" width="40" fill="#e4b5f7"/>
  <line x1="600" y1="205" x2="640" y2="205" stroke="#000000" stroke-width="1"/>
  <line x1="600" y1="235" x2="640" y2="235" stroke="#000000" stroke-width="1"/>
  <line stroke-dasharray="1,3" x1="640" y1="205" x2="640" y2="235" stroke="#000000" stroke-width="1"/>
  <line x1="600" y1="205" x2="600" y2="235" stroke="#000000" stroke-width="1"/>
  <text font-size="18" font-family="Courier New, monospace" font-weight="bold" x="620" y="221" text-anchor="middle" dominant-baseline="middle">55</text>
  <rect x="640" y="205" height="30" width="40" fill="#e4b5f7"/>
  <line x1="640" y1="205" x2="680" y2="205" stroke="#000000" stroke-width="1"/>
  <line x1="640" y1="235" x2="680" y2="235" stroke="#000000" stroke-width="1"/>
  <line x1="680" y1="205" x2="680" y2="235" stroke="#000000" stroke-width="1"/>
  <line stroke-dasharray="1,3" x1="640" y1="205" x2="640" y2="235" stroke="#000000" stroke-width="1"/>
  <text font-size="18" font-family="Courier New, monospace" font-weight="bold" x="660" y="221" text-anchor="middle" dominant-baseline="middle">aa</text>
</svg>
